/* XPM */
static char *_d2d4992a3624c6df3c689536417b07eLDooOeksqe5rdafh[] = {
/* columns rows colors chars-per-pixel */
"64 64 79 1 ",
"  c #5C5E57",
". c #5E5E5A",
"X c #5E605C",
"o c #63635B",
"O c #68665E",
"+ c #66685F",
"@ c #6B6A5F",
"# c #706C5C",
"$ c #5D6364",
"% c #5F656A",
"& c #636564",
"* c #686761",
"= c #666965",
"- c #6C6C65",
"; c #616769",
": c #656B6C",
"> c #6A6E6D",
", c #716E66",
"< c #786D60",
"1 c #706F69",
"2 c #6C716E",
"3 c #747266",
"4 c #74736C",
"5 c #79766E",
"6 c #7B796F",
"7 c #656E72",
"8 c #6A6F70",
"9 c #677074",
"0 c #6D7373",
"q c #6E7579",
"w c #6E797A",
"e c #727675",
"r c #7A7771",
"t c #747976",
"y c #7C7B74",
"u c #727778",
"i c #757A7B",
"p c #797D7D",
"a c #7C7F7D",
"s c #807A71",
"d c #807D75",
"f c #807F79",
"g c #7B807E",
"h c #7A807F",
"j c #808079",
"k c #86827A",
"l c #81817C",
"z c #85847E",
"x c #767C80",
"c c #757E80",
"v c #787E80",
"b c #7A7F80",
"n c #768081",
"m c #7B8182",
"M c #7E8182",
"N c #7C8382",
"B c #7F8483",
"V c #7B8284",
"C c #7E8385",
"Z c #7C8485",
"A c #7D8485",
"S c #7D8689",
"D c #818382",
"F c #808384",
"G c #818585",
"H c #838887",
"J c #858887",
"K c #8C8981",
"L c #8A8A85",
"P c #808789",
"I c #838889",
"U c #858A89",
"Y c #858B8A",
"T c #878A8D",
"R c #858C8D",
"E c #888C8C",
"W c #898D8C",
"Q c #8A8F91",
"! c #8B9190",
/* pixels */
"1y4dy66yyy4ryljjyrr-yy,46<5666r5s6s44Kkyly3yyyyy43,-32444@--yy,4",
"TCAieim9quipvvCGmpAvpmRGP4GGGUpMMmmeuUviGMpGUMvUmpmi;u9iqem9mmmi",
"MMu0pmAiiGGppiMpiMGBtMpApyMpFiiipppiepI0iGiMGMGMimiim00ictq:iAiP",
"GmhpppMGhIGppWGmppMppiVpMyIGGDiiCi0i9p0pAMeeMMppMppUi0eiuycipppu",
"pMMipDpi0piipMB0iiivi90avzpiPuMmGiiiiMHhUhp0iipiiMip0i0p;&9hiBpi",
"iDe&iei>20p0MGGiipihipmpprv0vimpUppmppIpBDepp:ie9iiieeevu&0eJDim",
"Mi:0pep0heee0iMpMMp=ipppmrphippvpm0itmpHpBiiiitMiee0i>iiettBpJGD",
"pGeipei0uM>iitMGiDiih;iDMyCpBeMiptpepiMDppihiGtMii00>eie2-0phpme",
"eiuhDMi>pi>iepm0piipMmmBiyIMGGDii000:MMithppiMDpMDie00i-e=:MGvie",
"ippp02ppp0ieeDptvp0BipphM4Gpppp0M0petphUHpMDpm:ie0>iepii02eM0mme",
"ti0i0MGpJpi0iephpHiiiDiip3ApGppmMhpppMmp0iiipv0e9t>ee&epp00MPpvu",
"ii000th0mMe:tppDiCpipUipMyGiAumiu0vu0MMBiieMuGpmi0pip00Fv>iGWUuG",
"hpM0pimpppiieiiMieuM0tuppjUGAPmmippeipMh0i0teippiithUi0ieeeimI0p",
"pDiipe0ippe>DaiGiuipMDMiMypGpGiipipi:eeMiMeGieDCM090ue:i0eeGpupM",
"iIGUGiiMiGMpGGDiMipUApeiqt0eaeitpMmei0hipieeueM>0:>i00p>p0ii08pe",
"097A;qwqi97777qupSnAqucqctiMpipiiqAmiMTmGv9wucpiccqcC0u9ip%qu0uu",
"O3--=134334Xo3r3d--3yrl4fdy3-3+ -,O*14-<64O,-36-3r-..&-&=h0=-41y",
"9i00pm3um9;97q90eii9ivmipUmie0iiipmpHmIymIpppvpIiimevM00uipeeMam",
":e9pmu49:9iii0uiepeppippiGiMiimmqM0iepmypUvpiiiee0iuu0i:e80Dpiee",
"00;ippyeiiM:2iippmippM0u9p0AiihMph0ipMm4pGpiiiGv;ee&0eu8euiiee&i",
"M0iiep6Mi>i0UtiUpiiMiiiMieiiieppMGGGphP6Gppimai0e>>0e0>>iep20iGG",
"ee90euyMi:>0ie0MiiGUeipipeMpi0ppmUpppGP4puu0iMpmpei8>ie>ieee>pW0",
"eMeGeiypvv8>pDiMeiitp0iaMDMpMpMeGMiiGiirUi0iuiempviieeppiieeepmp",
"Ppeppi-meihhppiMpiiipeippiiiPGvuCpGeppDymiMte9hMepGi0ppvD0appmhe",
"Pp0pC04Ue9ieitiDMpppmuuiiipmvivMMMpe0iMlmGMieMt>e:i8meiiGti-viUh",
"iGipii4pvpiieiupmphhipepmpieiepGiiieipU4Gpiii2ee$>tX0MGGemaiehGp",
"ie&:ui3i0eetiMtpeimtpp0ApIhm0imeepippMR4iqiie2ti:08:20ppvUpipGPG",
"ieeti:4m90eu80:0pMieipmMJhGemii00pAhMiMrG08p:%p0e0iite0Mpii0uiCv",
"00iep0-Au0i>0e0eteepi0:ippiiMUepiMheiMMyiepv:0pp2tviieBiei8>ueiD",
"eDiMve-Ai0:>eM0pDiiiIi&0i0:ehep0iGpieG0rii>e00pt>ti0itpii02:eeiM",
"pMGv0e1miuipi9iiipaippipAeuieGheeteipu0eMhieM0iii0i::0ii:e>0>iee",
"cRcS78-%:8%:9pipcmpphiivppiiBiAcwciQ0wAiVAm9;9u80:>0>ip0tHppppIT",
",3y34r6ry=,64y6yj54,334rr463,yd2rjyryy=lyy4h4--4-4=4yerhy,263-4,",
"MmPpuRCvCmiGUPAGppip7c0v9hmpiiMpmpiqpmhppmtphu0MiBVi90iVp3pGMHii",
"Mhp0eMP0iMpMGpGmipeiue0iiiimmhecCm0i0vMGiBpmAppctipiM:pmpypnGpii",
"muip0pehmM9iMMpiphiMi0ei0l9MMGepphupiMtDDpmihmpip0iGpp8piyviMGpu",
"GmipiMGhHMeippBepMiM0i>i;iiDt>eepi000p0p0veticpGGGhpipeipjMpvipp",
"HMimiiPpMMiii0pe9iepieep9tipuipphi8iteMpvMp>ppMGMipMMimqi40iieiw",
"up8uimiRphMip0ep0ie0p>ipeDGCiMpDlytiteMmmMGeDtMGpiMiM0vpp6mi9Gii",
"ApMiipGMpeihpGppui0e>eipeDu90GpMiiyei:ppiiUCvivChihiveii06ippcip",
"h0000ppphhpppMDpAG00e>i=2ppppGiMiee0290imGiivMmhMe2pi0iipyphAmpG",
"M0p9eMGGBvvUmp0p0e>tiiiiea9vmpeBDmipptMGhpe0pFpiipep0piii4D0piei",
"CMimiGmi9iuipAu00t:0e:eivpMiGhiWiieipaDiGG0eM0ethiMpeJpp0-ueAipi",
"iiiieipmipeMiMiit9iii>9MpepAeiMvhpeiphHppppiiie0GhDptMpMi4phGppi",
"pmpu0MBm0i0iiippiiiiGteiimeqptpvMheiMeHM0ipUpp0MM0iMphFviyhpTAmp",
"peei:eehppeDppMMMe>2ee>i0i08Dpiipippp2hLimApi0pGiipe:0ei9yvipI00",
"ppMet0h0ptievep00;>euui0peupp0MMGeuiehehpmpppM0tpphi00ppeyi0>iii",
"0icVehGPGv90pipvvvqcV9ceeHSMDeMMiUMApiUDIcmmpAnVICiUMiiuut0uiiM0",
"yyr4y6s-344y4434yy4d4-44r4-,r-414y6343#23r-4-rt&==4=-44--re4y34y",
"mMpppitcmiAMGcmpGpCPhiuppmvppvvmmMviUM4impuq:qAq9:ui0iqmm9Cpmicq",
"pMGApit99AMGi9phGppMppipGpehM0MMMii>RQyippi00iuppiimiimi0MiiMMmp",
"MiiipptiapMMvhppppAMMiMppiiDDeM9Mei;:ULimqu00puppip:090hiti0uuii",
"uMpepi-teappitempipGpi0iiMipMvpiiii9:pzwpmMiiMmieiiMDtpGpi0ppG0p",
"G0eii0y;tHMpiiaMMp0MvphpMe9tHieeMppippycppuepeppeppt0i0iim0pppii",
"itDtMieeepMhphevttpippppit0piG>GppeepMri0ie0miip0itpiiiMppapiieG",
"pimem2-peMMGMpppDhhpiieehiemhiimpapepHypG0ei>i00ep9p0eeemieei2;p",
"mipepptMhMMetMMMMipeipiiDtihMiiMMMteeiyv0;0ieh0pi8>0>:09ipimtmGe",
"iepttveieMMpA0DMihpMpitpDpMiGmipDGpDpi-8ip0e0hph0e>09ipt00thipia",
"pip0p>40iCMMp0iCGppetMpM0piDptpppUeMpMyciMi9eepe;i9iiipepe0>ehe0",
"pii0t0aimUpiipWUipiMhpe8iiMpipMiUGM0mUl8ieei00:>e000eii0ti-e0iM2",
"ippiuiev!GMMhHUMpMpGmhipiiepGppMMeeihpy0hieC00e8:tuei0epp0M0ipeh",
"MCieii28ippiivppiep>iDippiphmmipMMM0iprie009:9:0>;::9eMmiMhetiie",
"0impiM-ppMMGauMiGMhpiMhMiGupAvpBGMiiiMy88>>0i20022piipepetttii0e",
"%$80q04C0pucmM0piumnpmuiccAmiimpUiuV0ip0u9;:qi0i9iiuicmu:7i988;9"
};
