/* XPM */
static char *b38b1fe8dc3845e78894e05a065f69acefoYM2nojOwTKKO0[] = {
/* columns rows colors chars-per-pixel */
"32 32 65 1 ",
"  c #393835",
". c #3D3E38",
"X c #3F4223",
"o c #3F4329",
"O c #464B0C",
"+ c #4A4D0C",
"@ c #4A5106",
"# c #4C520C",
"$ c #414614",
"% c #464B14",
"& c #494D15",
"* c #42461C",
"= c #454A1C",
"- c #494D1C",
"; c #4B5114",
": c #4E501B",
"> c #525216",
", c #57581A",
"< c #434625",
"1 c #464A24",
"2 c #494C24",
"3 c #44462C",
"4 c #46492B",
"5 c #46492D",
"6 c #474C2C",
"7 c #484A28",
"8 c #4A4B2A",
"9 c #494C28",
"0 c #4A4C29",
"q c #4C4C29",
"w c #4D4D2B",
"e c #484A2D",
"r c #4C4A2E",
"t c #4B4D2C",
"y c #4D4C2F",
"u c #4C5121",
"i c #4E502B",
"p c #515128",
"a c #50502D",
"s c #434531",
"d c #464731",
"f c #454632",
"g c #454734",
"h c #484735",
"j c #454832",
"k c #464836",
"l c #484A30",
"z c #4A4B30",
"x c #4D4E33",
"c c #484937",
"v c #4C4C35",
"b c #46463A",
"n c #44453C",
"m c #48473E",
"M c #474A3A",
"N c #47483C",
"B c #484B38",
"V c #494A3B",
"C c #4B4C39",
"Z c #4C4C3B",
"A c #484A3F",
"S c #504E33",
"D c #454640",
"F c #494941",
"G c #4B4C42",
/* pixels */
"477443k597774jcj4kellye77-35l573",
"145j545jj5j275c4l55lpyS42eevC9-7",
"9xM927756555772557w9,we75ealy977",
"rcA59174444e42:292ut2w74eey77222",
"355M4#2j5554e9224jVc4t714klt24=1",
"375541577557745cVmcee7w-3V-&7377",
"414454e72247254dNDA5xee3jF4-7544",
"333k44ry4553171. bg7wy33gd3<3<<3",
"3jk37ew3ddk46227bCVkwwl31-e3gs33",
"714e4794j734544-cMV5-eAs=%3j<343",
"1=77lel973Mj55j5d33;-DnX*3gk54<$",
"%14je5jj53kl577h3<1#end%1gAd711=",
"179j5jjkd1=-:+7744;;cV1%b5471272",
"2-95e555<<-17jbjjj14j-773711=3e4",
"7&171-7d3395l5VAMVAn31<<&14$+%17",
"3=1--<3g571dg1<jd333<%X1-3s$O**=",
"<dd55jMM52eVV433<3g4<33333Vd==*O",
"4lcjcjccVtcAZt4X*4k-75j43lcl5771",
"3443473455e9-;%o=lj2544555VGV527",
"12-33%7l5444-21<3cVlic3jlkVcAl53",
"==435#1344j57e1*%%497Ad3<331457<",
"414l5wckjjj451@@=77;377<4221-=%*",
"<1333ew4ee4yv1@-334775-5l223:2:<",
"<<33<<3<<3<-34&<3s3d3s3<3=11>=<=",
"<3557e5<7577jy3kl3wydgCd7<7<1<4<",
"5le5947=4l7737<5Mn3977737543d3<5",
"ke5j5297441e34355kV4#-<1-55737=1",
"l625ylt7277tej42-1jVV5d<1<kj11+;",
"97243554<55Cjc34717cb3333e5731=1",
"=<445531194le7473<<43113j377jj17",
"731-7733492754t9-5c51&-7j7yw3jkc",
"<<=133331-;1<<3<-<jd31<111477wd<"
};
