/* XPM */
static char *_42e2677c4a447289344f4d802c6bd5ebNCZWVmpHWUXANu2[] = {
/* columns rows colors chars-per-pixel */
"64 64 26 1 ",
"  c #2F2E2E",
". c #312F2E",
"X c #2F302F",
"o c #32312F",
"O c #2F3031",
"+ c #343432",
"@ c #343433",
"# c #363432",
"$ c #373432",
"% c #363634",
"& c #393633",
"* c #393634",
"= c #383833",
"- c #3A3833",
"; c #3E3933",
": c #393834",
"> c #383936",
", c #3C3B37",
"< c #3E3C37",
"1 c #3B3A38",
"2 c #3E3B39",
"3 c #3D3C39",
"4 c #413F3A",
"5 c #433F3B",
"6 c #42403A",
"7 c #42403C",
/* pixels */
"##,--#&&*--#:2,:#*&,<,-##%--##&--#:####*#*##o.o##############&::",
"#&:*:&-&&####:,<,&&,3:#o###o# o&&#&#*,:,4:# o#o#####+#+###--##-,",
",&##::-*####&-<2:#:::1####o##oo#:3,,2444**26&########++###&:##::",
"-:#&-:--:&#-,:,343,####:####ooo##34:,34:&:,:*##<####O++##%:-###-",
"&&&&&&&-:#*-:,,,3#&#&########o#:3234443*,2<<&##3###:%######&##&&",
"##-&&&####&&,3<,:##:###*:&o#o#o&:<4343:,&&#&*&&##:::##%#########",
"##&-&&&&&&#*-,:*&o#####:*o##oo#:342,33:&,;#,#####%%%####%##&###o",
"&#&-&&##&&-&:,33############o# &:#,&:<,,&&o#&&###::########&#*##",
"&#&---#&&&&&-<33::###########:4oo#:*::4&&&o#oo#%#::**####%#-#-##",
"&&#&&&&&#&&--,:23,,&::,#:&####2&###&&&#&##;o#o####,:&%#####%&&##",
"&&#*#:*,&&-<2,*,,:,#,,4&,#####2&#&##&&*#&##o:&##%*#%##%#O##*####",
"##*##:-&&-:,4,,#<3<,::33,*######&:&#&::&&&:&#:,##%#1oo#   ##oX##",
"##,,&&*&,:,:,,<,:4#.#33<3####&*,#:*,,4:#*o#,#######%#o.oo#o oo##",
"##::*-#,&#---:,1<<&#o&<3#######:#:332,*##,#:o%%#%##:o  ooooo#oo#",
"&&-,-&::#&-::-,3,&-::,:,o###&43&&232,**&*4,&#*%o##,*###  O  #o #",
"%##:&,:,&&&---:,o::33:&:&*##*3<*&62:###::,::####o###:&#o...  X o",
"##&&#:,,-&###%#-,,:,,##oo#:*,3433<,:###o:,,*:%##:###### o# ..###",
"o##&,,,o###O###%-&%#. #o#.#&33344,,*####&3:::3%*#o ####oo#o##Oo#",
"o##*2,:,&#:#O##&o#o .oooooo#2,2%&#:<,&,:&3,::,:&##O:### XooX####",
"#&#*,,,:,## . #%#%#.o##oo&oo#*:###2,::-#2:#:*:::######&#   O##oo",
"#&#,###::*#####%##ooo##:#####,2###&::-#####%::::########### ##o#",
"###-&##&######oooo####o##**#&:3####::&#######:,*%###:*#%::##oo##",
"###&&3,##,-##%##:*#o#####**<2::2###:::*### *###:%###,,::*,#ooo&&",
"####*3,##,&##::--:#o##o##:22::::##&###&###o#######%#,2,:%# #####",
"###oo,######::*:-:####o##*:,,###&#o&#####o##X#&#####:::,&::#####",
"###o########-&--::#######::::*#####o##&###%##o:###::::::########",
"#ooo#&#####-&#--,##%%%####*:#:,3:#o#2####:### ###&:::-:########-",
"-#oo#:###&#&---:,:#*#&#-*:&,<47<,%o##,,#,## oo###::---#######&#:",
"&:-#*:######:::3:,:**##:::,3<2,*::###*::*##o#X###:-:%:####&#-&&*",
",&&&&&::::#&--,31&2,,:*,::,,3,3*,<:###%#%o#o o.##::>#####%##::&*",
",##,-::,,:##::3&#:::43-,::-,,,,,,,,#o#o#*#o&#o##+%#####:######*:",
"#&,-:--:::&#:,2:*:3:<,,*::---::-&*#oo#o#%###ooo###O###########*:",
"##,--#&&*--#:2,:#*&,<,-##%--##&--#:####*#*##o.o##############&::",
"#&:*:&-&&####:,<,&&,4,#o###o#.o&&#&#*,:,4:# o#o#######+###--##-,",
",&##::-*####&-<2:#:::1####o##oo#:3,,2444**26&########+++###%##::",
"-:#&-:--:&#-,:,343,####:####ooo##34:,34:&:,:*##<####O++##%%####-",
"&&&&&&&-:#*-:,,,3#&#&########o#:3234443*,2<<&##3###:%#########&&",
"##-&&&####&&,3<,:##:###*:#o#o#o&:<4343:,&&#&*&&##:::##%#########",
"##&-&&&&&&#*-,:*&o#####:*o##ooo:342,33:&,;#,#####%%%####%##&###o",
"&#&-&&##&&-&:,33############o# &:#,&:<,,&&o#&&###::########--:#&",
"&#&---#&&&&&-<33::###########:4oo#:*::4&&&oooo#%#::**####%#-#-#&",
"&&#&&&&&#&&--,:23,,&::,#:#####2&###&&&#&##;ooo####,:&%#####%&&#&",
"&&#*#:*,&&-<2,*,,:,#,,4&:#####2&#&##&&*#&##o,&###*#%##%#O##*####",
"##*##:-&&-:,4,,#<3<,::33,%###&##&:&#&::&&&:&#:,####1oo# . ##oX##",
"##,,&&*&,:,:,,<,:4#.#33<3####&*,#:*,,4:#*o#,#######%#o.oo#o oX##",
"##::*-#,&#---:,1<<&#o&<3#######:#:332,*##,#:o%%#%##:o  oooXX#oo#",
"&&-,-&::#&-::-,3,&-::,::o###&43&&232,**&*4,&#*%o##,*###  #  Oo +",
"%##:&,:,&&&---:,o::33:&:&*##*3<*&62:###::,::####o###:&#o...  X o",
"##&&#:,,-&###%#-,,:,,##oo#:*,3433<,:###o:,,*:%##:###### o#...###",
"o##&,,,o###O###%-&%#. #o#.#&33344,,*####&3:::3%*#o.####Xo#o###o#",
"o##*2,:,&#:#O###o#o .oooooo#2,2%&#:<,&,:#3,::,:&###:### oooX####",
"#&#*,,,:,## . #%#%#.o##oo&oo#*:###2,::-#1:#:*:::######&#   O##oo",
"#&#,###::*#####%##ooo##:#####,2###&::-#####%::::########### ##o#",
"###-&##&######oooo####o##**#&:3####::&#######,,*%###:*#%::##oo##",
"###&&3,##,-##%##:*#o#####**<2::2###:,:*### *###:%###,,::%,#ooo&&",
"####*3,##,&##::--:#o##o##:22::::##&###&###o#######%#,2,:%# #####",
"###oo,######::*:-:####o##*:,,###&#o&#####o##O#&####-:::,#:*#####",
"###o########-&--::#######::::*#####o##&###%##X:###::::::########",
"#ooo#&#####-&&--,##%%%####%:#:,3:#o#2&###:### ###&:::-:########-",
"-#oo#:#####&---:,:#*#&#-*:&,<47<:%o##,,#,## oo###::---#######&&:",
"&:-#*:######:::3:,:**##:::,3<2,*::###*::*##o#o###:-:%:#O####-&&*",
",&&&&&::::#&--,31&2,,:*,::,,3,3*,<:###%#%o#o o.##:::#####%##::-:",
",##,-::,,:##::3&#:::43-,::-,,,,,,,,#o#o#*#o&#o###%#####:######*:",
"#&,-:--:::&#:,2:*:3:<,,*::---::-&*#oo#o#%###ooo###############::"
};
